<?xml version="1.0" encoding="utf-8"?>
<!-- Generator: Adobe Illustrator 25.0.1, SVG Export Plug-In . SVG Version: 6.00 Build 0)  -->
<svg version="1.1" id="Calque_1" xmlns="http://www.w3.org/2000/svg" xmlns:xlink="http://www.w3.org/1999/xlink" x="0px" y="0px"
	 viewBox="0 0 28.6 55.7" style="enable-background:new 0 0 28.6 55.7;" xml:space="preserve">
<style type="text/css">
	.st0{fill:#B0FF5C;}
	.st1{fill:#FFFFFF;}
</style>
<g id="Calque_2_1_">
	<g id="Layer_1">
		<path class="st0" d="M27.2,4.3c-0.8-2.6-3.3-4.4-6.1-4.3H7.4c-2.7-0.1-5.2,1.7-6,4.3L0,12.7l1.3,36.6c0,4.8,4.3,6.4,9.6,6.4h6.9
			c5.3,0,9.6-1.6,9.6-6.4l1.3-36.6L27.2,4.3z"/>
	</g>
</g>
<rect x="5.5" y="9.6" class="st1" width="17.5" height="14.5"/>
<rect x="3.8" y="36.6" class="st1" width="20.9" height="3"/>
<rect x="3.8" y="40.9" class="st1" width="20.9" height="3"/>
<rect x="3.8" y="45.2" class="st1" width="20.9" height="3"/>
<rect x="11" y="26.7" class="st1" width="6.5" height="3.8"/>
<polygon class="st1" points="24.8,30.6 24.7,35.2 17,35.2 17,32.2 19.8,32.2 19.8,30.6 "/>
<polygon class="st1" points="8.9,30.5 8.9,32.1 11.7,32.1 11.7,35.2 3.8,35.2 3.8,30.5 "/>
</svg>
