<svg xmlns="http://www.w3.org/2000/svg" viewBox="0 0 70.04 9.2"><defs><style>.cls-1{fill:#b0ff5c;}</style></defs><g id="Calque_2" data-name="Calque 2"><g id="Layer_1" data-name="Layer 1"><path class="cls-1" d="M67,0H3.07A3.06,3.06,0,0,0,0,3.07V6.13A3.07,3.07,0,0,0,3.07,9.2H67A3.07,3.07,0,0,0,70,6.13V3.07A3.06,3.06,0,0,0,67,0ZM13.39,7.37a2.22,2.22,0,1,1,2.22-2.22A2.22,2.22,0,0,1,13.39,7.37ZM40.3,6.24H30.62V4.59l1-1.66H39.3l1,1.66Zm9.64-.42A1.22,1.22,0,1,1,51.16,4.6,1.22,1.22,0,0,1,49.94,5.82Zm4.26,0A1.22,1.22,0,1,1,55.42,4.6,1.23,1.23,0,0,1,54.2,5.82Zm4.25,0a1.22,1.22,0,1,1,0-2.44,1.22,1.22,0,0,1,0,2.44Z"/></g></g></svg>