<svg xmlns="http://www.w3.org/2000/svg" viewBox="0 0 70.04 7.09"><defs><style>.cls-1{fill:#b0ff5c;}</style></defs><g id="Calque_2" data-name="Calque 2"><g id="Layer_1" data-name="Layer 1"><path class="cls-1" d="M66.5,0h-63a3.55,3.55,0,0,0,0,7.09h63A3.55,3.55,0,0,0,66.5,0ZM37.86,5.11H32.18a1.57,1.57,0,0,1,0-3.13h5.68a1.57,1.57,0,0,1,0,3.13Zm12.08-.34a1.23,1.23,0,1,1,1.22-1.23A1.22,1.22,0,0,1,49.94,4.77Zm4.26,0a1.23,1.23,0,1,1,1.22-1.23A1.23,1.23,0,0,1,54.2,4.77Zm4.25,0a1.23,1.23,0,1,1,1.22-1.23A1.23,1.23,0,0,1,58.45,4.77Z"/></g></g></svg>