<svg xmlns="http://www.w3.org/2000/svg" viewBox="0 0 153.01 228.68"><defs><style>.cls-1{fill:#b0ff5c;}</style></defs><g id="Calque_2" data-name="Calque 2"><g id="Layer_1" data-name="Layer 1"><path class="cls-1" d="M153,12.65,81.85,0,68.94,2.57,69.22,64l-16,3.61L38.61,196.7,9.89,203.2l-3.45,4.36h0L0,215.67l47.94,13,28.56-.5,70-22.62-2.71-7.38-1.33-3.63-9.21-7.32-31.95-2.78-1.52.21-17.12,2.67-19.44-2.12v-79h6.14l.36,73,13,1.29L97,178.12h0l37.57-6.24L153,168.81ZM76.21,204.47l23.37-7-.92-6.78,2.82-.4L131,192.84l2.89,2.29L74.72,213.07l-23.93-.2-25.67-6.53,17.71-4.55,17.84,3.84Zm63.92-48.42L95.07,162.5,94.58,18l45.55,7.26Z"/></g></g></svg>