<svg xmlns="http://www.w3.org/2000/svg" viewBox="0 0 762.19 125.35"><defs><style>.cls-1{fill:#a2ff50;}</style></defs><g id="Calque_2" data-name="Calque 2"><g id="Calque_1-2" data-name="Calque 1"><path class="cls-1" d="M178.77,0H2.83A2.83,2.83,0,0,0,0,2.83V122.52a2.83,2.83,0,0,0,2.83,2.83H56.17A2.84,2.84,0,0,0,59,122.52V86.3a2.84,2.84,0,0,1,2.83-2.84h57.92a2.84,2.84,0,0,1,2.84,2.84v36.22a2.83,2.83,0,0,0,2.83,2.83h53.34a2.84,2.84,0,0,0,2.84-2.83V2.83A2.84,2.84,0,0,0,178.77,0Zm-59,55H61.84A2.83,2.83,0,0,1,59,52.2V31.27a2.84,2.84,0,0,1,2.83-2.84h57.92a2.84,2.84,0,0,1,2.84,2.84V52.2A2.84,2.84,0,0,1,119.76,55Z"/><path class="cls-1" d="M569.58,122.52V2.83A2.83,2.83,0,0,0,566.75,0H390.81A2.84,2.84,0,0,0,388,2.83V122.52a2.84,2.84,0,0,0,2.84,2.83H566.75A2.83,2.83,0,0,0,569.58,122.52Zm-61.84-25.6H449.82A2.84,2.84,0,0,1,447,94.08V31.27a2.84,2.84,0,0,1,2.84-2.84h57.92a2.84,2.84,0,0,1,2.83,2.84V94.08A2.84,2.84,0,0,1,507.74,96.92Z"/><path class="cls-1" d="M372.76,0H319.42a2.83,2.83,0,0,0-2.83,2.83V52.2A2.84,2.84,0,0,1,313.75,55H255.83A2.84,2.84,0,0,1,253,52.2V2.83A2.83,2.83,0,0,0,250.16,0H196.82A2.83,2.83,0,0,0,194,2.83v77.8a2.83,2.83,0,0,0,2.83,2.83H313.75a2.84,2.84,0,0,1,2.84,2.84v36.22a2.83,2.83,0,0,0,2.83,2.83h53.34a2.83,2.83,0,0,0,2.83-2.83V2.83A2.83,2.83,0,0,0,372.76,0Z"/><path class="cls-1" d="M759.36,0H706a2.84,2.84,0,0,0-2.84,2.83V52.2A2.83,2.83,0,0,1,700.35,55H642.43a2.84,2.84,0,0,1-2.84-2.83V2.83A2.83,2.83,0,0,0,636.76,0H583.42a2.83,2.83,0,0,0-2.83,2.83v77.8a2.83,2.83,0,0,0,2.83,2.83H700.35a2.83,2.83,0,0,1,2.83,2.84v36.22a2.84,2.84,0,0,0,2.84,2.83h53.34a2.83,2.83,0,0,0,2.83-2.83V2.83A2.83,2.83,0,0,0,759.36,0Z"/></g></g></svg>