<svg xmlns="http://www.w3.org/2000/svg" viewBox="0 0 1914.1 304.41"><defs><style>.cls-1{fill:#b7b7b7;}</style></defs><g id="Calque_2" data-name="Calque 2"><g id="Calque_1-2" data-name="Calque 1"><path class="cls-1" d="M178.77,0H2.83A2.83,2.83,0,0,0,0,2.83V122.52a2.83,2.83,0,0,0,2.83,2.83H56.17A2.84,2.84,0,0,0,59,122.52V86.3a2.84,2.84,0,0,1,2.83-2.84h57.92a2.84,2.84,0,0,1,2.84,2.84v36.22a2.83,2.83,0,0,0,2.83,2.83h53.34a2.84,2.84,0,0,0,2.84-2.83V2.83A2.84,2.84,0,0,0,178.77,0Zm-59,55H61.84A2.83,2.83,0,0,1,59,52.2V31.27a2.84,2.84,0,0,1,2.83-2.84h57.92a2.84,2.84,0,0,1,2.84,2.84V52.2A2.84,2.84,0,0,1,119.76,55Z"/><path class="cls-1" d="M752.94,179.06H577a2.83,2.83,0,0,0-2.83,2.84V301.58a2.83,2.83,0,0,0,2.83,2.83h53.34a2.83,2.83,0,0,0,2.83-2.83V265.36a2.84,2.84,0,0,1,2.84-2.83h57.92a2.83,2.83,0,0,1,2.83,2.83v36.22a2.84,2.84,0,0,0,2.84,2.83h53.34a2.83,2.83,0,0,0,2.83-2.83V181.9A2.84,2.84,0,0,0,752.94,179.06Zm-59,55H636a2.83,2.83,0,0,1-2.84-2.83V210.33A2.83,2.83,0,0,1,636,207.5h57.92a2.82,2.82,0,0,1,2.83,2.83v20.93A2.82,2.82,0,0,1,693.93,234.09Z"/><path class="cls-1" d="M1135.71,179.06H959.78a2.84,2.84,0,0,0-2.84,2.84V301.58a2.84,2.84,0,0,0,2.84,2.83h53.33a2.84,2.84,0,0,0,2.84-2.83V265.36a2.83,2.83,0,0,1,2.83-2.83h57.93a2.83,2.83,0,0,1,2.83,2.83v36.22a2.84,2.84,0,0,0,2.84,2.83h53.33a2.84,2.84,0,0,0,2.84-2.83V181.9A2.84,2.84,0,0,0,1135.71,179.06Zm-59,55h-57.93a2.83,2.83,0,0,1-2.83-2.83V210.33a2.83,2.83,0,0,1,2.83-2.83h57.93a2.83,2.83,0,0,1,2.83,2.83v20.93A2.83,2.83,0,0,1,1076.71,234.09Z"/><path class="cls-1" d="M311.69,31.27v91.25a2.83,2.83,0,0,1-2.83,2.83H255.52a2.83,2.83,0,0,1-2.83-2.83V31.27a2.84,2.84,0,0,0-2.84-2.84H194.22a2.83,2.83,0,0,1-2.83-2.83V2.83A2.83,2.83,0,0,1,194.22,0H370.16A2.83,2.83,0,0,1,373,2.83V25.6a2.83,2.83,0,0,1-2.83,2.83H314.53A2.84,2.84,0,0,0,311.69,31.27Z"/><path class="cls-1" d="M1268.64,210.33v91.25a2.84,2.84,0,0,1-2.84,2.83h-53.33a2.84,2.84,0,0,1-2.84-2.83V210.33a2.83,2.83,0,0,0-2.83-2.83h-55.63a2.84,2.84,0,0,1-2.84-2.84V181.9a2.84,2.84,0,0,1,2.84-2.84H1327.1a2.84,2.84,0,0,1,2.84,2.84v22.76a2.84,2.84,0,0,1-2.84,2.84h-55.63A2.83,2.83,0,0,0,1268.64,210.33Z"/><path class="cls-1" d="M1712.71,301.58V181.9a2.84,2.84,0,0,0-2.83-2.84H1533.94a2.84,2.84,0,0,0-2.83,2.84V301.58a2.83,2.83,0,0,0,2.83,2.83h175.94A2.83,2.83,0,0,0,1712.71,301.58ZM1650.87,276H1593a2.84,2.84,0,0,1-2.84-2.83V210.33a2.83,2.83,0,0,1,2.84-2.83h57.92a2.83,2.83,0,0,1,2.84,2.83v62.82A2.84,2.84,0,0,1,1650.87,276Z"/><path class="cls-1" d="M564.38,122.52V99.75a2.83,2.83,0,0,0-2.83-2.83H444.62a2.84,2.84,0,0,1-2.84-2.84V79.73a2.84,2.84,0,0,1,2.84-2.84H561.55a2.83,2.83,0,0,0,2.83-2.83V51.29a2.83,2.83,0,0,0-2.83-2.83H444.62a2.84,2.84,0,0,1-2.84-2.84V31.27a2.84,2.84,0,0,1,2.84-2.84H561.55a2.83,2.83,0,0,0,2.83-2.83V2.83A2.83,2.83,0,0,0,561.55,0H385.61a2.83,2.83,0,0,0-2.83,2.83V122.52a2.83,2.83,0,0,0,2.83,2.83H561.55A2.83,2.83,0,0,0,564.38,122.52Z"/><path class="cls-1" d="M1138.55,122.52V99.75a2.84,2.84,0,0,0-2.84-2.83H1018.78a2.84,2.84,0,0,1-2.83-2.84V79.73a2.84,2.84,0,0,1,2.83-2.84h116.93a2.84,2.84,0,0,0,2.84-2.83V51.29a2.84,2.84,0,0,0-2.84-2.83H1018.78a2.84,2.84,0,0,1-2.83-2.84V31.27a2.84,2.84,0,0,1,2.83-2.84h116.93a2.84,2.84,0,0,0,2.84-2.83V2.83A2.84,2.84,0,0,0,1135.71,0H959.78a2.84,2.84,0,0,0-2.84,2.83V122.52a2.84,2.84,0,0,0,2.84,2.83h175.93A2.84,2.84,0,0,0,1138.55,122.52Z"/><path class="cls-1" d="M755.77,122.52V99.75a2.83,2.83,0,0,0-2.83-2.83H636a2.84,2.84,0,0,1-2.84-2.84V2.83A2.83,2.83,0,0,0,630.34,0H577a2.83,2.83,0,0,0-2.83,2.83V122.52a2.83,2.83,0,0,0,2.83,2.83H752.94A2.83,2.83,0,0,0,755.77,122.52Z"/><path class="cls-1" d="M947.16,122.52V99.75a2.84,2.84,0,0,0-2.84-2.83H888.69a2.84,2.84,0,0,1-2.83-2.84V31.27a2.84,2.84,0,0,1,2.83-2.84h55.63a2.84,2.84,0,0,0,2.84-2.83V2.83A2.84,2.84,0,0,0,944.32,0H768.39a2.84,2.84,0,0,0-2.84,2.83V25.6a2.84,2.84,0,0,0,2.84,2.83H824a2.84,2.84,0,0,1,2.83,2.84V94.08A2.84,2.84,0,0,1,824,96.92H768.39a2.84,2.84,0,0,0-2.84,2.83v22.77a2.84,2.84,0,0,0,2.84,2.83H944.32A2.84,2.84,0,0,0,947.16,122.52Z"/><path class="cls-1" d="M1521.32,301.58V278.81a2.83,2.83,0,0,0-2.83-2.83h-55.63a2.83,2.83,0,0,1-2.83-2.84V210.33a2.82,2.82,0,0,1,2.83-2.83h55.63a2.83,2.83,0,0,0,2.83-2.84V181.9a2.83,2.83,0,0,0-2.83-2.84H1342.55a2.84,2.84,0,0,0-2.83,2.84v22.76a2.84,2.84,0,0,0,2.83,2.84h55.63a2.83,2.83,0,0,1,2.84,2.83v62.81a2.84,2.84,0,0,1-2.84,2.84h-55.63a2.83,2.83,0,0,0-2.83,2.83v22.77a2.83,2.83,0,0,0,2.83,2.83h175.94A2.83,2.83,0,0,0,1521.32,301.58Z"/><path class="cls-1" d="M1327.1,0H1151.17a2.84,2.84,0,0,0-2.84,2.83V122.52a2.84,2.84,0,0,0,2.84,2.83h53.33a2.84,2.84,0,0,0,2.84-2.83V86.3a2.84,2.84,0,0,1,2.83-2.84h36.35A2.84,2.84,0,0,1,1249,85l20.18,38.83a2.84,2.84,0,0,0,2.51,1.53h53.54a2.83,2.83,0,0,0,2.51-4.14l-17.46-33.6a2.84,2.84,0,0,1,2.51-4.15h14.27a2.83,2.83,0,0,0,2.84-2.83V2.83A2.84,2.84,0,0,0,1327.1,0ZM1210.17,28.43h57.93a2.84,2.84,0,0,1,2.83,2.84V52.2A2.83,2.83,0,0,1,1268.1,55h-57.93a2.83,2.83,0,0,1-2.83-2.83V31.27A2.84,2.84,0,0,1,1210.17,28.43Z"/><path class="cls-1" d="M1909.9,122.52V99.75a2.84,2.84,0,0,0-2.84-2.83H1790.13a2.84,2.84,0,0,1-2.83-2.84V79.73a2.84,2.84,0,0,1,2.83-2.84h116.93a2.84,2.84,0,0,0,2.84-2.83V51.29a2.84,2.84,0,0,0-2.84-2.83H1790.13a2.84,2.84,0,0,1-2.83-2.84V31.27a2.84,2.84,0,0,1,2.83-2.84h116.93a2.84,2.84,0,0,0,2.84-2.83V2.83A2.84,2.84,0,0,0,1907.06,0H1731.13a2.84,2.84,0,0,0-2.84,2.83V122.52a2.84,2.84,0,0,0,2.84,2.83h175.93A2.84,2.84,0,0,0,1909.9,122.52Z"/><path class="cls-1" d="M373,301.58V278.81a2.83,2.83,0,0,0-2.83-2.83H253.23a2.84,2.84,0,0,1-2.84-2.84V258.79a2.84,2.84,0,0,1,2.84-2.84H370.16a2.83,2.83,0,0,0,2.83-2.83V230.36a2.84,2.84,0,0,0-2.83-2.84H253.23a2.84,2.84,0,0,1-2.84-2.83V210.33a2.83,2.83,0,0,1,2.84-2.83H370.16a2.84,2.84,0,0,0,2.83-2.84V181.9a2.84,2.84,0,0,0-2.83-2.84H194.22a2.84,2.84,0,0,0-2.83,2.84V301.58a2.83,2.83,0,0,0,2.83,2.83H370.16A2.83,2.83,0,0,0,373,301.58Z"/><path class="cls-1" d="M178.77,179.06H2.83A2.84,2.84,0,0,0,0,181.9V301.58a2.83,2.83,0,0,0,2.83,2.83H56.17A2.84,2.84,0,0,0,59,301.58V265.36a2.83,2.83,0,0,1,2.83-2.83H98.19a2.85,2.85,0,0,1,2.52,1.52l20.18,38.84a2.85,2.85,0,0,0,2.51,1.52h53.54a2.83,2.83,0,0,0,2.51-4.14L162,266.67a2.83,2.83,0,0,1,2.51-4.14h14.27a2.84,2.84,0,0,0,2.84-2.84V181.9A2.84,2.84,0,0,0,178.77,179.06ZM61.84,207.5h57.92a2.83,2.83,0,0,1,2.84,2.83v20.93a2.83,2.83,0,0,1-2.84,2.83H61.84A2.83,2.83,0,0,1,59,231.26V210.33A2.83,2.83,0,0,1,61.84,207.5Z"/><path class="cls-1" d="M944.32,179.06H768.39a2.84,2.84,0,0,0-2.84,2.84V301.58a2.84,2.84,0,0,0,2.84,2.83h53.34a2.83,2.83,0,0,0,2.83-2.83V265.36a2.84,2.84,0,0,1,2.84-2.83h36.34a2.85,2.85,0,0,1,2.52,1.52l20.18,38.84a2.85,2.85,0,0,0,2.52,1.52h53.53a2.83,2.83,0,0,0,2.52-4.14l-17.47-33.6a2.83,2.83,0,0,1,2.52-4.14h14.26a2.84,2.84,0,0,0,2.84-2.84V181.9A2.84,2.84,0,0,0,944.32,179.06ZM827.4,207.5h57.92a2.83,2.83,0,0,1,2.83,2.83v20.93a2.83,2.83,0,0,1-2.83,2.83H827.4a2.83,2.83,0,0,1-2.84-2.83V210.33A2.83,2.83,0,0,1,827.4,207.5Z"/><path class="cls-1" d="M564.38,179.06H382.78V304.41h59V262.53h122.6Zm-59,55h-63.6V207.5h63.6Z"/><path class="cls-1" d="M1694.87,123.82l21.51-41.38a2.88,2.88,0,0,0,.32-1.31V2.83A2.83,2.83,0,0,0,1713.87,0H1537.93a2.83,2.83,0,0,0-2.83,2.83V122.52a2.83,2.83,0,0,0,2.83,2.83h154.42A2.84,2.84,0,0,0,1694.87,123.82ZM1594.1,94.08V31.27a2.84,2.84,0,0,1,2.84-2.84h57.92a2.83,2.83,0,0,1,2.83,2.84V79.36a2.82,2.82,0,0,1-.32,1.31l-7.65,14.72a2.81,2.81,0,0,1-2.51,1.53h-50.27A2.84,2.84,0,0,1,1594.1,94.08Z"/><rect class="cls-1" x="191.39" y="136.71" width="181.61" height="28.43" rx="2.83"/><path class="cls-1" d="M1914.1,301.58V181.9a2.84,2.84,0,0,0-2.83-2.84h-53.34a2.84,2.84,0,0,0-2.83,2.84V244a2.84,2.84,0,0,1-5.35,1.32l-34.16-64.73a2.84,2.84,0,0,0-2.51-1.51h-87.75a2.84,2.84,0,0,0-2.83,2.84V301.58a2.83,2.83,0,0,0,2.83,2.83h53.34a2.83,2.83,0,0,0,2.83-2.83v-60a2.84,2.84,0,0,1,5.35-1.31l32.78,62.67a2.81,2.81,0,0,0,2.51,1.52h89.13A2.83,2.83,0,0,0,1914.1,301.58Z"/></g></g></svg>